<?xml version="1.0" encoding="utf-8" standalone="no"?>
<!DOCTYPE svg PUBLIC "-//W3C//DTD SVG 1.1//EN"
  "http://www.w3.org/Graphics/SVG/1.1/DTD/svg11.dtd">
<svg xmlns:xlink="http://www.w3.org/1999/xlink" width="460.8pt" height="345.6pt" viewBox="0 0 460.8 345.6" xmlns="http://www.w3.org/2000/svg" version="1.1">
 <metadata>
  <rdf:RDF xmlns:dc="http://purl.org/dc/elements/1.1/" xmlns:cc="http://creativecommons.org/ns#" xmlns:rdf="http://www.w3.org/1999/02/22-rdf-syntax-ns#">
   <cc:Work>
    <dc:type rdf:resource="http://purl.org/dc/dcmitype/StillImage"/>
    <dc:date>2023-04-14T14:29:47.853749</dc:date>
    <dc:format>image/svg+xml</dc:format>
    <dc:creator>
     <cc:Agent>
      <dc:title>Matplotlib v3.7.1, https://matplotlib.org/</dc:title>
     </cc:Agent>
    </dc:creator>
   </cc:Work>
  </rdf:RDF>
 </metadata>
 <defs>
  <style type="text/css">*{stroke-linejoin: round; stroke-linecap: butt}</style>
 </defs>
 <g id="figure_1">
  <g id="patch_1">
   <path d="M 0 345.6 
L 460.8 345.6 
L 460.8 0 
L 0 0 
z
" style="fill: #ffffff"/>
  </g>
  <g id="axes_1">
   <g id="patch_2">
    <path d="M 57.6 307.584 
L 414.72 307.584 
L 414.72 41.472 
L 57.6 41.472 
z
" style="fill: #ffffff"/>
   </g>
   <g id="matplotlib.axis_1">
    <g id="xtick_1">
     <g id="line2d_1">
      <defs>
       <path id="mbb5a46b42d" d="M 0 0 
L 0 3.5 
" style="stroke: #000000; stroke-width: 0.8"/>
      </defs>
      <g>
       <use xlink:href="#mbb5a46b42d" x="73.832727" y="307.584" style="stroke: #000000; stroke-width: 0.8"/>
      </g>
     </g>
     <g id="text_1">
      <!-- 0 -->
      <g transform="translate(70.651477 322.182437) scale(0.1 -0.1)">
       <defs>
        <path id="DejaVuSans-30" d="M 2034 4250 
Q 1547 4250 1301 3770 
Q 1056 3291 1056 2328 
Q 1056 1369 1301 889 
Q 1547 409 2034 409 
Q 2525 409 2770 889 
Q 3016 1369 3016 2328 
Q 3016 3291 2770 3770 
Q 2525 4250 2034 4250 
z
M 2034 4750 
Q 2819 4750 3233 4129 
Q 3647 3509 3647 2328 
Q 3647 1150 3233 529 
Q 2819 -91 2034 -91 
Q 1250 -91 836 529 
Q 422 1150 422 2328 
Q 422 3509 836 4129 
Q 1250 4750 2034 4750 
z
" transform="scale(0.015625)"/>
       </defs>
       <use xlink:href="#DejaVuSans-30"/>
      </g>
     </g>
    </g>
    <g id="xtick_2">
     <g id="line2d_2">
      <g>
       <use xlink:href="#mbb5a46b42d" x="139.419504" y="307.584" style="stroke: #000000; stroke-width: 0.8"/>
      </g>
     </g>
     <g id="text_2">
      <!-- 20 -->
      <g transform="translate(133.057004 322.182437) scale(0.1 -0.1)">
       <defs>
        <path id="DejaVuSans-32" d="M 1228 531 
L 3431 531 
L 3431 0 
L 469 0 
L 469 531 
Q 828 903 1448 1529 
Q 2069 2156 2228 2338 
Q 2531 2678 2651 2914 
Q 2772 3150 2772 3378 
Q 2772 3750 2511 3984 
Q 2250 4219 1831 4219 
Q 1534 4219 1204 4116 
Q 875 4013 500 3803 
L 500 4441 
Q 881 4594 1212 4672 
Q 1544 4750 1819 4750 
Q 2544 4750 2975 4387 
Q 3406 4025 3406 3419 
Q 3406 3131 3298 2873 
Q 3191 2616 2906 2266 
Q 2828 2175 2409 1742 
Q 1991 1309 1228 531 
z
" transform="scale(0.015625)"/>
       </defs>
       <use xlink:href="#DejaVuSans-32"/>
       <use xlink:href="#DejaVuSans-30" x="63.623047"/>
      </g>
     </g>
    </g>
    <g id="xtick_3">
     <g id="line2d_3">
      <g>
       <use xlink:href="#mbb5a46b42d" x="205.006281" y="307.584" style="stroke: #000000; stroke-width: 0.8"/>
      </g>
     </g>
     <g id="text_3">
      <!-- 40 -->
      <g transform="translate(198.643781 322.182437) scale(0.1 -0.1)">
       <defs>
        <path id="DejaVuSans-34" d="M 2419 4116 
L 825 1625 
L 2419 1625 
L 2419 4116 
z
M 2253 4666 
L 3047 4666 
L 3047 1625 
L 3713 1625 
L 3713 1100 
L 3047 1100 
L 3047 0 
L 2419 0 
L 2419 1100 
L 313 1100 
L 313 1709 
L 2253 4666 
z
" transform="scale(0.015625)"/>
       </defs>
       <use xlink:href="#DejaVuSans-34"/>
       <use xlink:href="#DejaVuSans-30" x="63.623047"/>
      </g>
     </g>
    </g>
    <g id="xtick_4">
     <g id="line2d_4">
      <g>
       <use xlink:href="#mbb5a46b42d" x="270.593058" y="307.584" style="stroke: #000000; stroke-width: 0.8"/>
      </g>
     </g>
     <g id="text_4">
      <!-- 60 -->
      <g transform="translate(264.230558 322.182437) scale(0.1 -0.1)">
       <defs>
        <path id="DejaVuSans-36" d="M 2113 2584 
Q 1688 2584 1439 2293 
Q 1191 2003 1191 1497 
Q 1191 994 1439 701 
Q 1688 409 2113 409 
Q 2538 409 2786 701 
Q 3034 994 3034 1497 
Q 3034 2003 2786 2293 
Q 2538 2584 2113 2584 
z
M 3366 4563 
L 3366 3988 
Q 3128 4100 2886 4159 
Q 2644 4219 2406 4219 
Q 1781 4219 1451 3797 
Q 1122 3375 1075 2522 
Q 1259 2794 1537 2939 
Q 1816 3084 2150 3084 
Q 2853 3084 3261 2657 
Q 3669 2231 3669 1497 
Q 3669 778 3244 343 
Q 2819 -91 2113 -91 
Q 1303 -91 875 529 
Q 447 1150 447 2328 
Q 447 3434 972 4092 
Q 1497 4750 2381 4750 
Q 2619 4750 2861 4703 
Q 3103 4656 3366 4563 
z
" transform="scale(0.015625)"/>
       </defs>
       <use xlink:href="#DejaVuSans-36"/>
       <use xlink:href="#DejaVuSans-30" x="63.623047"/>
      </g>
     </g>
    </g>
    <g id="xtick_5">
     <g id="line2d_5">
      <g>
       <use xlink:href="#mbb5a46b42d" x="336.179835" y="307.584" style="stroke: #000000; stroke-width: 0.8"/>
      </g>
     </g>
     <g id="text_5">
      <!-- 80 -->
      <g transform="translate(329.817335 322.182437) scale(0.1 -0.1)">
       <defs>
        <path id="DejaVuSans-38" d="M 2034 2216 
Q 1584 2216 1326 1975 
Q 1069 1734 1069 1313 
Q 1069 891 1326 650 
Q 1584 409 2034 409 
Q 2484 409 2743 651 
Q 3003 894 3003 1313 
Q 3003 1734 2745 1975 
Q 2488 2216 2034 2216 
z
M 1403 2484 
Q 997 2584 770 2862 
Q 544 3141 544 3541 
Q 544 4100 942 4425 
Q 1341 4750 2034 4750 
Q 2731 4750 3128 4425 
Q 3525 4100 3525 3541 
Q 3525 3141 3298 2862 
Q 3072 2584 2669 2484 
Q 3125 2378 3379 2068 
Q 3634 1759 3634 1313 
Q 3634 634 3220 271 
Q 2806 -91 2034 -91 
Q 1263 -91 848 271 
Q 434 634 434 1313 
Q 434 1759 690 2068 
Q 947 2378 1403 2484 
z
M 1172 3481 
Q 1172 3119 1398 2916 
Q 1625 2713 2034 2713 
Q 2441 2713 2670 2916 
Q 2900 3119 2900 3481 
Q 2900 3844 2670 4047 
Q 2441 4250 2034 4250 
Q 1625 4250 1398 4047 
Q 1172 3844 1172 3481 
z
" transform="scale(0.015625)"/>
       </defs>
       <use xlink:href="#DejaVuSans-38"/>
       <use xlink:href="#DejaVuSans-30" x="63.623047"/>
      </g>
     </g>
    </g>
    <g id="xtick_6">
     <g id="line2d_6">
      <g>
       <use xlink:href="#mbb5a46b42d" x="401.766612" y="307.584" style="stroke: #000000; stroke-width: 0.8"/>
      </g>
     </g>
     <g id="text_6">
      <!-- 100 -->
      <g transform="translate(392.222862 322.182437) scale(0.1 -0.1)">
       <defs>
        <path id="DejaVuSans-31" d="M 794 531 
L 1825 531 
L 1825 4091 
L 703 3866 
L 703 4441 
L 1819 4666 
L 2450 4666 
L 2450 531 
L 3481 531 
L 3481 0 
L 794 0 
L 794 531 
z
" transform="scale(0.015625)"/>
       </defs>
       <use xlink:href="#DejaVuSans-31"/>
       <use xlink:href="#DejaVuSans-30" x="63.623047"/>
       <use xlink:href="#DejaVuSans-30" x="127.246094"/>
      </g>
     </g>
    </g>
    <g id="text_7">
     <!-- Number of steps -->
     <g transform="translate(194.656094 335.860562) scale(0.1 -0.1)">
      <defs>
       <path id="DejaVuSans-4e" d="M 628 4666 
L 1478 4666 
L 3547 763 
L 3547 4666 
L 4159 4666 
L 4159 0 
L 3309 0 
L 1241 3903 
L 1241 0 
L 628 0 
L 628 4666 
z
" transform="scale(0.015625)"/>
       <path id="DejaVuSans-75" d="M 544 1381 
L 544 3500 
L 1119 3500 
L 1119 1403 
Q 1119 906 1312 657 
Q 1506 409 1894 409 
Q 2359 409 2629 706 
Q 2900 1003 2900 1516 
L 2900 3500 
L 3475 3500 
L 3475 0 
L 2900 0 
L 2900 538 
Q 2691 219 2414 64 
Q 2138 -91 1772 -91 
Q 1169 -91 856 284 
Q 544 659 544 1381 
z
M 1991 3584 
L 1991 3584 
z
" transform="scale(0.015625)"/>
       <path id="DejaVuSans-6d" d="M 3328 2828 
Q 3544 3216 3844 3400 
Q 4144 3584 4550 3584 
Q 5097 3584 5394 3201 
Q 5691 2819 5691 2113 
L 5691 0 
L 5113 0 
L 5113 2094 
Q 5113 2597 4934 2840 
Q 4756 3084 4391 3084 
Q 3944 3084 3684 2787 
Q 3425 2491 3425 1978 
L 3425 0 
L 2847 0 
L 2847 2094 
Q 2847 2600 2669 2842 
Q 2491 3084 2119 3084 
Q 1678 3084 1418 2786 
Q 1159 2488 1159 1978 
L 1159 0 
L 581 0 
L 581 3500 
L 1159 3500 
L 1159 2956 
Q 1356 3278 1631 3431 
Q 1906 3584 2284 3584 
Q 2666 3584 2933 3390 
Q 3200 3197 3328 2828 
z
" transform="scale(0.015625)"/>
       <path id="DejaVuSans-62" d="M 3116 1747 
Q 3116 2381 2855 2742 
Q 2594 3103 2138 3103 
Q 1681 3103 1420 2742 
Q 1159 2381 1159 1747 
Q 1159 1113 1420 752 
Q 1681 391 2138 391 
Q 2594 391 2855 752 
Q 3116 1113 3116 1747 
z
M 1159 2969 
Q 1341 3281 1617 3432 
Q 1894 3584 2278 3584 
Q 2916 3584 3314 3078 
Q 3713 2572 3713 1747 
Q 3713 922 3314 415 
Q 2916 -91 2278 -91 
Q 1894 -91 1617 61 
Q 1341 213 1159 525 
L 1159 0 
L 581 0 
L 581 4863 
L 1159 4863 
L 1159 2969 
z
" transform="scale(0.015625)"/>
       <path id="DejaVuSans-65" d="M 3597 1894 
L 3597 1613 
L 953 1613 
Q 991 1019 1311 708 
Q 1631 397 2203 397 
Q 2534 397 2845 478 
Q 3156 559 3463 722 
L 3463 178 
Q 3153 47 2828 -22 
Q 2503 -91 2169 -91 
Q 1331 -91 842 396 
Q 353 884 353 1716 
Q 353 2575 817 3079 
Q 1281 3584 2069 3584 
Q 2775 3584 3186 3129 
Q 3597 2675 3597 1894 
z
M 3022 2063 
Q 3016 2534 2758 2815 
Q 2500 3097 2075 3097 
Q 1594 3097 1305 2825 
Q 1016 2553 972 2059 
L 3022 2063 
z
" transform="scale(0.015625)"/>
       <path id="DejaVuSans-72" d="M 2631 2963 
Q 2534 3019 2420 3045 
Q 2306 3072 2169 3072 
Q 1681 3072 1420 2755 
Q 1159 2438 1159 1844 
L 1159 0 
L 581 0 
L 581 3500 
L 1159 3500 
L 1159 2956 
Q 1341 3275 1631 3429 
Q 1922 3584 2338 3584 
Q 2397 3584 2469 3576 
Q 2541 3569 2628 3553 
L 2631 2963 
z
" transform="scale(0.015625)"/>
       <path id="DejaVuSans-20" transform="scale(0.015625)"/>
       <path id="DejaVuSans-6f" d="M 1959 3097 
Q 1497 3097 1228 2736 
Q 959 2375 959 1747 
Q 959 1119 1226 758 
Q 1494 397 1959 397 
Q 2419 397 2687 759 
Q 2956 1122 2956 1747 
Q 2956 2369 2687 2733 
Q 2419 3097 1959 3097 
z
M 1959 3584 
Q 2709 3584 3137 3096 
Q 3566 2609 3566 1747 
Q 3566 888 3137 398 
Q 2709 -91 1959 -91 
Q 1206 -91 779 398 
Q 353 888 353 1747 
Q 353 2609 779 3096 
Q 1206 3584 1959 3584 
z
" transform="scale(0.015625)"/>
       <path id="DejaVuSans-66" d="M 2375 4863 
L 2375 4384 
L 1825 4384 
Q 1516 4384 1395 4259 
Q 1275 4134 1275 3809 
L 1275 3500 
L 2222 3500 
L 2222 3053 
L 1275 3053 
L 1275 0 
L 697 0 
L 697 3053 
L 147 3053 
L 147 3500 
L 697 3500 
L 697 3744 
Q 697 4328 969 4595 
Q 1241 4863 1831 4863 
L 2375 4863 
z
" transform="scale(0.015625)"/>
       <path id="DejaVuSans-73" d="M 2834 3397 
L 2834 2853 
Q 2591 2978 2328 3040 
Q 2066 3103 1784 3103 
Q 1356 3103 1142 2972 
Q 928 2841 928 2578 
Q 928 2378 1081 2264 
Q 1234 2150 1697 2047 
L 1894 2003 
Q 2506 1872 2764 1633 
Q 3022 1394 3022 966 
Q 3022 478 2636 193 
Q 2250 -91 1575 -91 
Q 1294 -91 989 -36 
Q 684 19 347 128 
L 347 722 
Q 666 556 975 473 
Q 1284 391 1588 391 
Q 1994 391 2212 530 
Q 2431 669 2431 922 
Q 2431 1156 2273 1281 
Q 2116 1406 1581 1522 
L 1381 1569 
Q 847 1681 609 1914 
Q 372 2147 372 2553 
Q 372 3047 722 3315 
Q 1072 3584 1716 3584 
Q 2034 3584 2315 3537 
Q 2597 3491 2834 3397 
z
" transform="scale(0.015625)"/>
       <path id="DejaVuSans-74" d="M 1172 4494 
L 1172 3500 
L 2356 3500 
L 2356 3053 
L 1172 3053 
L 1172 1153 
Q 1172 725 1289 603 
Q 1406 481 1766 481 
L 2356 481 
L 2356 0 
L 1766 0 
Q 1100 0 847 248 
Q 594 497 594 1153 
L 594 3053 
L 172 3053 
L 172 3500 
L 594 3500 
L 594 4494 
L 1172 4494 
z
" transform="scale(0.015625)"/>
       <path id="DejaVuSans-70" d="M 1159 525 
L 1159 -1331 
L 581 -1331 
L 581 3500 
L 1159 3500 
L 1159 2969 
Q 1341 3281 1617 3432 
Q 1894 3584 2278 3584 
Q 2916 3584 3314 3078 
Q 3713 2572 3713 1747 
Q 3713 922 3314 415 
Q 2916 -91 2278 -91 
Q 1894 -91 1617 61 
Q 1341 213 1159 525 
z
M 3116 1747 
Q 3116 2381 2855 2742 
Q 2594 3103 2138 3103 
Q 1681 3103 1420 2742 
Q 1159 2381 1159 1747 
Q 1159 1113 1420 752 
Q 1681 391 2138 391 
Q 2594 391 2855 752 
Q 3116 1113 3116 1747 
z
" transform="scale(0.015625)"/>
      </defs>
      <use xlink:href="#DejaVuSans-4e"/>
      <use xlink:href="#DejaVuSans-75" x="74.804688"/>
      <use xlink:href="#DejaVuSans-6d" x="138.183594"/>
      <use xlink:href="#DejaVuSans-62" x="235.595703"/>
      <use xlink:href="#DejaVuSans-65" x="299.072266"/>
      <use xlink:href="#DejaVuSans-72" x="360.595703"/>
      <use xlink:href="#DejaVuSans-20" x="401.708984"/>
      <use xlink:href="#DejaVuSans-6f" x="433.496094"/>
      <use xlink:href="#DejaVuSans-66" x="494.677734"/>
      <use xlink:href="#DejaVuSans-20" x="529.882812"/>
      <use xlink:href="#DejaVuSans-73" x="561.669922"/>
      <use xlink:href="#DejaVuSans-74" x="613.769531"/>
      <use xlink:href="#DejaVuSans-65" x="652.978516"/>
      <use xlink:href="#DejaVuSans-70" x="714.501953"/>
      <use xlink:href="#DejaVuSans-73" x="777.978516"/>
     </g>
    </g>
   </g>
   <g id="matplotlib.axis_2">
    <g id="ytick_1">
     <g id="line2d_7">
      <defs>
       <path id="m1c483fad7a" d="M 0 0 
L -3.5 0 
" style="stroke: #000000; stroke-width: 0.8"/>
      </defs>
      <g>
       <use xlink:href="#m1c483fad7a" x="57.6" y="269.521515" style="stroke: #000000; stroke-width: 0.8"/>
      </g>
     </g>
     <g id="text_8">
      <!-- −15 -->
      <g transform="translate(29.495313 273.320734) scale(0.1 -0.1)">
       <defs>
        <path id="DejaVuSans-2212" d="M 678 2272 
L 4684 2272 
L 4684 1741 
L 678 1741 
L 678 2272 
z
" transform="scale(0.015625)"/>
        <path id="DejaVuSans-35" d="M 691 4666 
L 3169 4666 
L 3169 4134 
L 1269 4134 
L 1269 2991 
Q 1406 3038 1543 3061 
Q 1681 3084 1819 3084 
Q 2600 3084 3056 2656 
Q 3513 2228 3513 1497 
Q 3513 744 3044 326 
Q 2575 -91 1722 -91 
Q 1428 -91 1123 -41 
Q 819 9 494 109 
L 494 744 
Q 775 591 1075 516 
Q 1375 441 1709 441 
Q 2250 441 2565 725 
Q 2881 1009 2881 1497 
Q 2881 1984 2565 2268 
Q 2250 2553 1709 2553 
Q 1456 2553 1204 2497 
Q 953 2441 691 2322 
L 691 4666 
z
" transform="scale(0.015625)"/>
       </defs>
       <use xlink:href="#DejaVuSans-2212"/>
       <use xlink:href="#DejaVuSans-31" x="83.789062"/>
       <use xlink:href="#DejaVuSans-35" x="147.412109"/>
      </g>
     </g>
    </g>
    <g id="ytick_2">
     <g id="line2d_8">
      <g>
       <use xlink:href="#m1c483fad7a" x="57.6" y="226.244039" style="stroke: #000000; stroke-width: 0.8"/>
      </g>
     </g>
     <g id="text_9">
      <!-- −10 -->
      <g transform="translate(29.495313 230.043258) scale(0.1 -0.1)">
       <use xlink:href="#DejaVuSans-2212"/>
       <use xlink:href="#DejaVuSans-31" x="83.789062"/>
       <use xlink:href="#DejaVuSans-30" x="147.412109"/>
      </g>
     </g>
    </g>
    <g id="ytick_3">
     <g id="line2d_9">
      <g>
       <use xlink:href="#m1c483fad7a" x="57.6" y="182.966564" style="stroke: #000000; stroke-width: 0.8"/>
      </g>
     </g>
     <g id="text_10">
      <!-- −5 -->
      <g transform="translate(35.857813 186.765783) scale(0.1 -0.1)">
       <use xlink:href="#DejaVuSans-2212"/>
       <use xlink:href="#DejaVuSans-35" x="83.789062"/>
      </g>
     </g>
    </g>
    <g id="ytick_4">
     <g id="line2d_10">
      <g>
       <use xlink:href="#m1c483fad7a" x="57.6" y="139.689089" style="stroke: #000000; stroke-width: 0.8"/>
      </g>
     </g>
     <g id="text_11">
      <!-- 0 -->
      <g transform="translate(44.2375 143.488307) scale(0.1 -0.1)">
       <use xlink:href="#DejaVuSans-30"/>
      </g>
     </g>
    </g>
    <g id="ytick_5">
     <g id="line2d_11">
      <g>
       <use xlink:href="#m1c483fad7a" x="57.6" y="96.411613" style="stroke: #000000; stroke-width: 0.8"/>
      </g>
     </g>
     <g id="text_12">
      <!-- 5 -->
      <g transform="translate(44.2375 100.210832) scale(0.1 -0.1)">
       <use xlink:href="#DejaVuSans-35"/>
      </g>
     </g>
    </g>
    <g id="ytick_6">
     <g id="line2d_12">
      <g>
       <use xlink:href="#m1c483fad7a" x="57.6" y="53.134138" style="stroke: #000000; stroke-width: 0.8"/>
      </g>
     </g>
     <g id="text_13">
      <!-- 10 -->
      <g transform="translate(37.875 56.933357) scale(0.1 -0.1)">
       <use xlink:href="#DejaVuSans-31"/>
       <use xlink:href="#DejaVuSans-30" x="63.623047"/>
      </g>
     </g>
    </g>
    <g id="text_14">
     <!-- Random Walk -->
     <g transform="translate(23.415625 208.788938) rotate(-90) scale(0.1 -0.1)">
      <defs>
       <path id="DejaVuSans-52" d="M 2841 2188 
Q 3044 2119 3236 1894 
Q 3428 1669 3622 1275 
L 4263 0 
L 3584 0 
L 2988 1197 
Q 2756 1666 2539 1819 
Q 2322 1972 1947 1972 
L 1259 1972 
L 1259 0 
L 628 0 
L 628 4666 
L 2053 4666 
Q 2853 4666 3247 4331 
Q 3641 3997 3641 3322 
Q 3641 2881 3436 2590 
Q 3231 2300 2841 2188 
z
M 1259 4147 
L 1259 2491 
L 2053 2491 
Q 2509 2491 2742 2702 
Q 2975 2913 2975 3322 
Q 2975 3731 2742 3939 
Q 2509 4147 2053 4147 
L 1259 4147 
z
" transform="scale(0.015625)"/>
       <path id="DejaVuSans-61" d="M 2194 1759 
Q 1497 1759 1228 1600 
Q 959 1441 959 1056 
Q 959 750 1161 570 
Q 1363 391 1709 391 
Q 2188 391 2477 730 
Q 2766 1069 2766 1631 
L 2766 1759 
L 2194 1759 
z
M 3341 1997 
L 3341 0 
L 2766 0 
L 2766 531 
Q 2569 213 2275 61 
Q 1981 -91 1556 -91 
Q 1019 -91 701 211 
Q 384 513 384 1019 
Q 384 1609 779 1909 
Q 1175 2209 1959 2209 
L 2766 2209 
L 2766 2266 
Q 2766 2663 2505 2880 
Q 2244 3097 1772 3097 
Q 1472 3097 1187 3025 
Q 903 2953 641 2809 
L 641 3341 
Q 956 3463 1253 3523 
Q 1550 3584 1831 3584 
Q 2591 3584 2966 3190 
Q 3341 2797 3341 1997 
z
" transform="scale(0.015625)"/>
       <path id="DejaVuSans-6e" d="M 3513 2113 
L 3513 0 
L 2938 0 
L 2938 2094 
Q 2938 2591 2744 2837 
Q 2550 3084 2163 3084 
Q 1697 3084 1428 2787 
Q 1159 2491 1159 1978 
L 1159 0 
L 581 0 
L 581 3500 
L 1159 3500 
L 1159 2956 
Q 1366 3272 1645 3428 
Q 1925 3584 2291 3584 
Q 2894 3584 3203 3211 
Q 3513 2838 3513 2113 
z
" transform="scale(0.015625)"/>
       <path id="DejaVuSans-64" d="M 2906 2969 
L 2906 4863 
L 3481 4863 
L 3481 0 
L 2906 0 
L 2906 525 
Q 2725 213 2448 61 
Q 2172 -91 1784 -91 
Q 1150 -91 751 415 
Q 353 922 353 1747 
Q 353 2572 751 3078 
Q 1150 3584 1784 3584 
Q 2172 3584 2448 3432 
Q 2725 3281 2906 2969 
z
M 947 1747 
Q 947 1113 1208 752 
Q 1469 391 1925 391 
Q 2381 391 2643 752 
Q 2906 1113 2906 1747 
Q 2906 2381 2643 2742 
Q 2381 3103 1925 3103 
Q 1469 3103 1208 2742 
Q 947 2381 947 1747 
z
" transform="scale(0.015625)"/>
       <path id="DejaVuSans-57" d="M 213 4666 
L 850 4666 
L 1831 722 
L 2809 4666 
L 3519 4666 
L 4500 722 
L 5478 4666 
L 6119 4666 
L 4947 0 
L 4153 0 
L 3169 4050 
L 2175 0 
L 1381 0 
L 213 4666 
z
" transform="scale(0.015625)"/>
       <path id="DejaVuSans-6c" d="M 603 4863 
L 1178 4863 
L 1178 0 
L 603 0 
L 603 4863 
z
" transform="scale(0.015625)"/>
       <path id="DejaVuSans-6b" d="M 581 4863 
L 1159 4863 
L 1159 1991 
L 2875 3500 
L 3609 3500 
L 1753 1863 
L 3688 0 
L 2938 0 
L 1159 1709 
L 1159 0 
L 581 0 
L 581 4863 
z
" transform="scale(0.015625)"/>
      </defs>
      <use xlink:href="#DejaVuSans-52"/>
      <use xlink:href="#DejaVuSans-61" x="67.232422"/>
      <use xlink:href="#DejaVuSans-6e" x="128.511719"/>
      <use xlink:href="#DejaVuSans-64" x="191.890625"/>
      <use xlink:href="#DejaVuSans-6f" x="255.367188"/>
      <use xlink:href="#DejaVuSans-6d" x="316.548828"/>
      <use xlink:href="#DejaVuSans-20" x="413.960938"/>
      <use xlink:href="#DejaVuSans-57" x="445.748047"/>
      <use xlink:href="#DejaVuSans-61" x="538.25"/>
      <use xlink:href="#DejaVuSans-6c" x="599.529297"/>
      <use xlink:href="#DejaVuSans-6b" x="627.3125"/>
     </g>
    </g>
   </g>
   <g id="line2d_13">
    <path d="M 73.832727 148.344584 
L 77.112066 139.689089 
L 80.391405 131.033594 
L 83.670744 122.378098 
L 86.950083 113.722603 
L 90.229421 122.378098 
L 93.50876 131.033594 
L 96.788099 122.378098 
L 100.067438 113.722603 
L 103.346777 105.067108 
L 106.626116 96.411613 
L 109.905455 87.756118 
L 113.184793 96.411613 
L 116.464132 105.067108 
L 119.743471 113.722603 
L 123.02281 122.378098 
L 126.302149 113.722603 
L 129.581488 105.067108 
L 132.860826 113.722603 
L 136.140165 122.378098 
L 139.419504 131.033594 
L 142.698843 139.689089 
L 145.978182 131.033594 
L 149.257521 139.689089 
L 152.53686 131.033594 
L 155.816198 139.689089 
L 159.095537 131.033594 
L 162.374876 122.378098 
L 165.654215 131.033594 
L 168.933554 139.689089 
L 172.212893 131.033594 
L 175.492231 139.689089 
L 178.77157 131.033594 
L 182.050909 139.689089 
L 185.330248 131.033594 
L 188.609587 139.689089 
L 191.888926 148.344584 
L 195.168264 157.000079 
L 198.447603 165.655574 
L 201.726942 157.000079 
L 205.006281 165.655574 
L 208.28562 174.311069 
L 211.564959 165.655574 
L 214.844298 157.000079 
L 218.123636 165.655574 
L 221.402975 174.311069 
L 224.682314 165.655574 
L 227.961653 174.311069 
L 231.240992 182.966564 
L 234.520331 174.311069 
L 237.799669 182.966564 
L 241.079008 191.622059 
L 244.358347 200.277554 
L 247.637686 208.933049 
L 250.917025 200.277554 
L 254.196364 208.933049 
L 257.475702 217.588544 
L 260.755041 226.244039 
L 264.03438 217.588544 
L 267.313719 226.244039 
L 270.593058 234.899534 
L 273.872397 226.244039 
L 277.151736 217.588544 
L 280.431074 226.244039 
L 283.710413 217.588544 
L 286.989752 226.244039 
L 290.269091 234.899534 
L 293.54843 226.244039 
L 296.827769 234.899534 
L 300.107107 243.55503 
L 303.386446 234.899534 
L 306.665785 243.55503 
L 309.945124 252.210525 
L 313.224463 260.86602 
L 316.503802 269.521515 
L 319.78314 278.17701 
L 323.062479 269.521515 
L 326.341818 278.17701 
L 329.621157 286.832505 
L 332.900496 278.17701 
L 336.179835 286.832505 
L 339.459174 295.488 
L 342.738512 286.832505 
L 346.017851 295.488 
L 349.29719 286.832505 
L 352.576529 278.17701 
L 355.855868 286.832505 
L 359.135207 278.17701 
L 362.414545 269.521515 
L 365.693884 278.17701 
L 368.973223 269.521515 
L 372.252562 260.86602 
L 375.531901 252.210525 
L 378.81124 260.86602 
L 382.090579 269.521515 
L 385.369917 260.86602 
L 388.649256 269.521515 
L 391.928595 260.86602 
L 395.207934 252.210525 
L 398.487273 260.86602 
" clip-path="url(#pf228ebaa5f)" style="fill: none; stroke: #1f77b4; stroke-width: 1.5; stroke-linecap: square"/>
   </g>
   <g id="line2d_14">
    <path d="M 73.832727 148.344584 
L 77.112066 157.000079 
L 80.391405 165.655574 
L 83.670744 174.311069 
L 86.950083 165.655574 
L 90.229421 157.000079 
L 93.50876 165.655574 
L 96.788099 157.000079 
L 100.067438 165.655574 
L 103.346777 174.311069 
L 106.626116 182.966564 
L 109.905455 174.311069 
L 113.184793 165.655574 
L 116.464132 174.311069 
L 119.743471 165.655574 
L 123.02281 174.311069 
L 126.302149 182.966564 
L 129.581488 191.622059 
L 132.860826 182.966564 
L 136.140165 191.622059 
L 139.419504 182.966564 
L 142.698843 191.622059 
L 145.978182 200.277554 
L 149.257521 191.622059 
L 152.53686 182.966564 
L 155.816198 191.622059 
L 159.095537 182.966564 
L 162.374876 191.622059 
L 165.654215 182.966564 
L 168.933554 174.311069 
L 172.212893 182.966564 
L 175.492231 191.622059 
L 178.77157 182.966564 
L 182.050909 191.622059 
L 185.330248 200.277554 
L 188.609587 191.622059 
L 191.888926 182.966564 
L 195.168264 191.622059 
L 198.447603 200.277554 
L 201.726942 208.933049 
L 205.006281 217.588544 
L 208.28562 208.933049 
L 211.564959 200.277554 
L 214.844298 191.622059 
L 218.123636 200.277554 
L 221.402975 191.622059 
L 224.682314 182.966564 
L 227.961653 191.622059 
L 231.240992 182.966564 
L 234.520331 191.622059 
L 237.799669 200.277554 
L 241.079008 191.622059 
L 244.358347 200.277554 
L 247.637686 208.933049 
L 250.917025 217.588544 
L 254.196364 226.244039 
L 257.475702 217.588544 
L 260.755041 208.933049 
L 264.03438 200.277554 
L 267.313719 191.622059 
L 270.593058 200.277554 
L 273.872397 191.622059 
L 277.151736 200.277554 
L 280.431074 208.933049 
L 283.710413 217.588544 
L 286.989752 208.933049 
L 290.269091 217.588544 
L 293.54843 208.933049 
L 296.827769 200.277554 
L 300.107107 208.933049 
L 303.386446 217.588544 
L 306.665785 208.933049 
L 309.945124 217.588544 
L 313.224463 226.244039 
L 316.503802 234.899534 
L 319.78314 226.244039 
L 323.062479 234.899534 
L 326.341818 243.55503 
L 329.621157 234.899534 
L 332.900496 243.55503 
L 336.179835 234.899534 
L 339.459174 243.55503 
L 342.738512 234.899534 
L 346.017851 226.244039 
L 349.29719 234.899534 
L 352.576529 226.244039 
L 355.855868 217.588544 
L 359.135207 208.933049 
L 362.414545 200.277554 
L 365.693884 208.933049 
L 368.973223 200.277554 
L 372.252562 208.933049 
L 375.531901 200.277554 
L 378.81124 191.622059 
L 382.090579 182.966564 
L 385.369917 174.311069 
L 388.649256 182.966564 
L 391.928595 191.622059 
L 395.207934 182.966564 
L 398.487273 191.622059 
" clip-path="url(#pf228ebaa5f)" style="fill: none; stroke: #ff7f0e; stroke-width: 1.5; stroke-linecap: square"/>
   </g>
   <g id="line2d_15">
    <path d="M 73.832727 148.344584 
L 77.112066 157.000079 
L 80.391405 148.344584 
L 83.670744 139.689089 
L 86.950083 131.033594 
L 90.229421 139.689089 
L 93.50876 131.033594 
L 96.788099 139.689089 
L 100.067438 148.344584 
L 103.346777 157.000079 
L 106.626116 165.655574 
L 109.905455 174.311069 
L 113.184793 165.655574 
L 116.464132 174.311069 
L 119.743471 182.966564 
L 123.02281 191.622059 
L 126.302149 182.966564 
L 129.581488 174.311069 
L 132.860826 182.966564 
L 136.140165 174.311069 
L 139.419504 165.655574 
L 142.698843 157.000079 
L 145.978182 148.344584 
L 149.257521 157.000079 
L 152.53686 148.344584 
L 155.816198 157.000079 
L 159.095537 148.344584 
L 162.374876 157.000079 
L 165.654215 165.655574 
L 168.933554 174.311069 
L 172.212893 182.966564 
L 175.492231 174.311069 
L 178.77157 182.966564 
L 182.050909 191.622059 
L 185.330248 182.966564 
L 188.609587 174.311069 
L 191.888926 165.655574 
L 195.168264 157.000079 
L 198.447603 148.344584 
L 201.726942 157.000079 
L 205.006281 165.655574 
L 208.28562 157.000079 
L 211.564959 148.344584 
L 214.844298 157.000079 
L 218.123636 148.344584 
L 221.402975 139.689089 
L 224.682314 148.344584 
L 227.961653 157.000079 
L 231.240992 165.655574 
L 234.520331 157.000079 
L 237.799669 148.344584 
L 241.079008 157.000079 
L 244.358347 165.655574 
L 247.637686 174.311069 
L 250.917025 182.966564 
L 254.196364 174.311069 
L 257.475702 165.655574 
L 260.755041 174.311069 
L 264.03438 165.655574 
L 267.313719 174.311069 
L 270.593058 182.966564 
L 273.872397 174.311069 
L 277.151736 165.655574 
L 280.431074 157.000079 
L 283.710413 165.655574 
L 286.989752 174.311069 
L 290.269091 182.966564 
L 293.54843 174.311069 
L 296.827769 182.966564 
L 300.107107 174.311069 
L 303.386446 182.966564 
L 306.665785 174.311069 
L 309.945124 182.966564 
L 313.224463 191.622059 
L 316.503802 200.277554 
L 319.78314 208.933049 
L 323.062479 217.588544 
L 326.341818 208.933049 
L 329.621157 217.588544 
L 332.900496 208.933049 
L 336.179835 200.277554 
L 339.459174 208.933049 
L 342.738512 217.588544 
L 346.017851 208.933049 
L 349.29719 217.588544 
L 352.576529 208.933049 
L 355.855868 200.277554 
L 359.135207 208.933049 
L 362.414545 200.277554 
L 365.693884 191.622059 
L 368.973223 200.277554 
L 372.252562 208.933049 
L 375.531901 217.588544 
L 378.81124 208.933049 
L 382.090579 217.588544 
L 385.369917 208.933049 
L 388.649256 200.277554 
L 391.928595 208.933049 
L 395.207934 200.277554 
L 398.487273 191.622059 
" clip-path="url(#pf228ebaa5f)" style="fill: none; stroke: #2ca02c; stroke-width: 1.5; stroke-linecap: square"/>
   </g>
   <g id="line2d_16">
    <path d="M 73.832727 148.344584 
L 77.112066 139.689089 
L 80.391405 131.033594 
L 83.670744 122.378098 
L 86.950083 113.722603 
L 90.229421 122.378098 
L 93.50876 113.722603 
L 96.788099 122.378098 
L 100.067438 131.033594 
L 103.346777 122.378098 
L 106.626116 131.033594 
L 109.905455 122.378098 
L 113.184793 131.033594 
L 116.464132 139.689089 
L 119.743471 148.344584 
L 123.02281 157.000079 
L 126.302149 148.344584 
L 129.581488 139.689089 
L 132.860826 131.033594 
L 136.140165 139.689089 
L 139.419504 131.033594 
L 142.698843 139.689089 
L 145.978182 131.033594 
L 149.257521 122.378098 
L 152.53686 113.722603 
L 155.816198 105.067108 
L 159.095537 113.722603 
L 162.374876 122.378098 
L 165.654215 113.722603 
L 168.933554 105.067108 
L 172.212893 113.722603 
L 175.492231 105.067108 
L 178.77157 113.722603 
L 182.050909 122.378098 
L 185.330248 131.033594 
L 188.609587 122.378098 
L 191.888926 131.033594 
L 195.168264 139.689089 
L 198.447603 148.344584 
L 201.726942 139.689089 
L 205.006281 131.033594 
L 208.28562 139.689089 
L 211.564959 131.033594 
L 214.844298 139.689089 
L 218.123636 148.344584 
L 221.402975 139.689089 
L 224.682314 148.344584 
L 227.961653 157.000079 
L 231.240992 165.655574 
L 234.520331 157.000079 
L 237.799669 165.655574 
L 241.079008 174.311069 
L 244.358347 165.655574 
L 247.637686 157.000079 
L 250.917025 148.344584 
L 254.196364 157.000079 
L 257.475702 148.344584 
L 260.755041 139.689089 
L 264.03438 148.344584 
L 267.313719 157.000079 
L 270.593058 165.655574 
L 273.872397 157.000079 
L 277.151736 148.344584 
L 280.431074 157.000079 
L 283.710413 148.344584 
L 286.989752 139.689089 
L 290.269091 131.033594 
L 293.54843 139.689089 
L 296.827769 131.033594 
L 300.107107 139.689089 
L 303.386446 148.344584 
L 306.665785 139.689089 
L 309.945124 148.344584 
L 313.224463 157.000079 
L 316.503802 148.344584 
L 319.78314 157.000079 
L 323.062479 165.655574 
L 326.341818 174.311069 
L 329.621157 182.966564 
L 332.900496 174.311069 
L 336.179835 165.655574 
L 339.459174 174.311069 
L 342.738512 165.655574 
L 346.017851 174.311069 
L 349.29719 182.966564 
L 352.576529 191.622059 
L 355.855868 200.277554 
L 359.135207 191.622059 
L 362.414545 182.966564 
L 365.693884 191.622059 
L 368.973223 182.966564 
L 372.252562 174.311069 
L 375.531901 165.655574 
L 378.81124 157.000079 
L 382.090579 148.344584 
L 385.369917 157.000079 
L 388.649256 148.344584 
L 391.928595 139.689089 
L 395.207934 148.344584 
L 398.487273 157.000079 
" clip-path="url(#pf228ebaa5f)" style="fill: none; stroke: #d62728; stroke-width: 1.5; stroke-linecap: square"/>
   </g>
   <g id="line2d_17">
    <path d="M 73.832727 148.344584 
L 77.112066 139.689089 
L 80.391405 148.344584 
L 83.670744 139.689089 
L 86.950083 131.033594 
L 90.229421 139.689089 
L 93.50876 131.033594 
L 96.788099 122.378098 
L 100.067438 113.722603 
L 103.346777 122.378098 
L 106.626116 131.033594 
L 109.905455 122.378098 
L 113.184793 131.033594 
L 116.464132 122.378098 
L 119.743471 131.033594 
L 123.02281 139.689089 
L 126.302149 148.344584 
L 129.581488 139.689089 
L 132.860826 131.033594 
L 136.140165 139.689089 
L 139.419504 131.033594 
L 142.698843 122.378098 
L 145.978182 131.033594 
L 149.257521 122.378098 
L 152.53686 113.722603 
L 155.816198 122.378098 
L 159.095537 131.033594 
L 162.374876 139.689089 
L 165.654215 148.344584 
L 168.933554 157.000079 
L 172.212893 165.655574 
L 175.492231 174.311069 
L 178.77157 165.655574 
L 182.050909 157.000079 
L 185.330248 165.655574 
L 188.609587 157.000079 
L 191.888926 148.344584 
L 195.168264 139.689089 
L 198.447603 131.033594 
L 201.726942 139.689089 
L 205.006281 148.344584 
L 208.28562 139.689089 
L 211.564959 148.344584 
L 214.844298 157.000079 
L 218.123636 148.344584 
L 221.402975 139.689089 
L 224.682314 148.344584 
L 227.961653 139.689089 
L 231.240992 131.033594 
L 234.520331 122.378098 
L 237.799669 113.722603 
L 241.079008 105.067108 
L 244.358347 113.722603 
L 247.637686 105.067108 
L 250.917025 113.722603 
L 254.196364 122.378098 
L 257.475702 131.033594 
L 260.755041 122.378098 
L 264.03438 113.722603 
L 267.313719 105.067108 
L 270.593058 96.411613 
L 273.872397 105.067108 
L 277.151736 113.722603 
L 280.431074 122.378098 
L 283.710413 131.033594 
L 286.989752 122.378098 
L 290.269091 113.722603 
L 293.54843 105.067108 
L 296.827769 113.722603 
L 300.107107 105.067108 
L 303.386446 96.411613 
L 306.665785 105.067108 
L 309.945124 96.411613 
L 313.224463 105.067108 
L 316.503802 113.722603 
L 319.78314 122.378098 
L 323.062479 131.033594 
L 326.341818 139.689089 
L 329.621157 148.344584 
L 332.900496 157.000079 
L 336.179835 165.655574 
L 339.459174 174.311069 
L 342.738512 182.966564 
L 346.017851 174.311069 
L 349.29719 165.655574 
L 352.576529 157.000079 
L 355.855868 165.655574 
L 359.135207 157.000079 
L 362.414545 165.655574 
L 365.693884 174.311069 
L 368.973223 182.966564 
L 372.252562 191.622059 
L 375.531901 182.966564 
L 378.81124 174.311069 
L 382.090579 165.655574 
L 385.369917 157.000079 
L 388.649256 148.344584 
L 391.928595 139.689089 
L 395.207934 131.033594 
L 398.487273 122.378098 
" clip-path="url(#pf228ebaa5f)" style="fill: none; stroke: #9467bd; stroke-width: 1.5; stroke-linecap: square"/>
   </g>
   <g id="line2d_18">
    <path d="M 73.832727 139.689089 
L 77.112066 131.033594 
L 80.391405 127.44837 
L 83.670744 124.697331 
L 86.950083 122.378098 
L 90.229421 120.334813 
L 93.50876 118.487542 
L 96.788099 116.788801 
L 100.067438 115.207652 
L 103.346777 113.722603 
L 106.626116 112.31801 
L 109.905455 110.982059 
L 113.184793 109.705574 
L 116.464132 108.481257 
L 119.743471 107.303192 
L 123.02281 106.1665 
L 126.302149 105.067108 
L 129.581488 104.001568 
L 132.860826 102.966933 
L 136.140165 101.96066 
L 139.419504 100.980538 
L 142.698843 100.024627 
L 145.978182 99.091218 
L 149.257521 98.178792 
L 152.53686 97.285996 
L 155.816198 96.411613 
L 159.095537 95.55455 
L 162.374876 94.713817 
L 165.654215 93.888514 
L 168.933554 93.077821 
L 172.212893 92.28099 
L 175.492231 91.497332 
L 178.77157 90.726215 
L 182.050909 89.967055 
L 185.330248 89.219313 
L 188.609587 88.482489 
L 191.888926 87.756118 
L 195.168264 87.039767 
L 198.447603 86.333034 
L 201.726942 85.635539 
L 205.006281 84.946931 
L 208.28562 84.266878 
L 211.564959 83.595069 
L 214.844298 82.931212 
L 218.123636 82.27503 
L 221.402975 81.626263 
L 224.682314 80.984665 
L 227.961653 80.350004 
L 231.240992 79.72206 
L 234.520331 79.100623 
L 237.799669 78.485496 
L 241.079008 77.87649 
L 244.358347 77.273426 
L 247.637686 76.676133 
L 250.917025 76.084449 
L 254.196364 75.498219 
L 257.475702 74.917294 
L 260.755041 74.341534 
L 264.03438 73.770802 
L 267.313719 73.204969 
L 270.593058 72.643912 
L 273.872397 72.087511 
L 277.151736 71.535652 
L 280.431074 70.988226 
L 283.710413 70.445128 
L 286.989752 69.906256 
L 290.269091 69.371514 
L 293.54843 68.840808 
L 296.827769 68.314048 
L 300.107107 67.791147 
L 303.386446 67.272021 
L 306.665785 66.756591 
L 309.945124 66.244777 
L 313.224463 65.736506 
L 316.503802 65.231705 
L 319.78314 64.730302 
L 323.062479 64.232232 
L 326.341818 63.737428 
L 329.621157 63.245826 
L 332.900496 62.757366 
L 336.179835 62.271987 
L 339.459174 61.789633 
L 342.738512 61.310247 
L 346.017851 60.833776 
L 349.29719 60.360166 
L 352.576529 59.889367 
L 355.855868 59.421329 
L 359.135207 58.956005 
L 362.414545 58.493348 
L 365.693884 58.033311 
L 368.973223 57.575852 
L 372.252562 57.120928 
L 375.531901 56.668496 
L 378.81124 56.218517 
L 382.090579 55.77095 
L 385.369917 55.325758 
L 388.649256 54.882903 
L 391.928595 54.442348 
L 395.207934 54.004059 
L 398.487273 53.568 
" clip-path="url(#pf228ebaa5f)" style="fill: none; stroke-dasharray: 11.1,4.8; stroke-dashoffset: 0; stroke: #000000; stroke-width: 3"/>
   </g>
   <g id="line2d_19">
    <path d="M 73.832727 139.689089 
L 77.112066 148.344584 
L 80.391405 151.929807 
L 83.670744 154.680846 
L 86.950083 157.000079 
L 90.229421 159.043364 
L 93.50876 160.890635 
L 96.788099 162.589376 
L 100.067438 164.170526 
L 103.346777 165.655574 
L 106.626116 167.060167 
L 109.905455 168.396118 
L 113.184793 169.672603 
L 116.464132 170.89692 
L 119.743471 172.074986 
L 123.02281 173.211677 
L 126.302149 174.311069 
L 129.581488 175.376609 
L 132.860826 176.411244 
L 136.140165 177.417517 
L 139.419504 178.397639 
L 142.698843 179.35355 
L 145.978182 180.286959 
L 149.257521 181.199385 
L 152.53686 182.092181 
L 155.816198 182.966564 
L 159.095537 183.823627 
L 162.374876 184.66436 
L 165.654215 185.489664 
L 168.933554 186.300356 
L 172.212893 187.097188 
L 175.492231 187.880846 
L 178.77157 188.651963 
L 182.050909 189.411122 
L 185.330248 190.158864 
L 188.609587 190.895688 
L 191.888926 191.622059 
L 195.168264 192.33841 
L 198.447603 193.045144 
L 201.726942 193.742638 
L 205.006281 194.431246 
L 208.28562 195.111299 
L 211.564959 195.783108 
L 214.844298 196.446965 
L 218.123636 197.103148 
L 221.402975 197.751915 
L 224.682314 198.393512 
L 227.961653 199.028173 
L 231.240992 199.656118 
L 234.520331 200.277554 
L 237.799669 200.892681 
L 241.079008 201.501687 
L 244.358347 202.104751 
L 247.637686 202.702044 
L 250.917025 203.293728 
L 254.196364 203.879958 
L 257.475702 204.460883 
L 260.755041 205.036643 
L 264.03438 205.607375 
L 267.313719 206.173208 
L 270.593058 206.734265 
L 273.872397 207.290666 
L 277.151736 207.842525 
L 280.431074 208.389951 
L 283.710413 208.933049 
L 286.989752 209.471921 
L 290.269091 210.006663 
L 293.54843 210.537369 
L 296.827769 211.06413 
L 300.107107 211.587031 
L 303.386446 212.106156 
L 306.665785 212.621587 
L 309.945124 213.1334 
L 313.224463 213.641671 
L 316.503802 214.146473 
L 319.78314 214.647875 
L 323.062479 215.145945 
L 326.341818 215.64075 
L 329.621157 216.132351 
L 332.900496 216.620812 
L 336.179835 217.10619 
L 339.459174 217.588544 
L 342.738512 218.06793 
L 346.017851 218.544402 
L 349.29719 219.018011 
L 352.576529 219.48881 
L 355.855868 219.956848 
L 359.135207 220.422172 
L 362.414545 220.88483 
L 365.693884 221.344866 
L 368.973223 221.802325 
L 372.252562 222.257249 
L 375.531901 222.709681 
L 378.81124 223.15966 
L 382.090579 223.607227 
L 385.369917 224.052419 
L 388.649256 224.495274 
L 391.928595 224.935829 
L 395.207934 225.374118 
L 398.487273 225.810177 
" clip-path="url(#pf228ebaa5f)" style="fill: none; stroke-dasharray: 11.1,4.8; stroke-dashoffset: 0; stroke: #000000; stroke-width: 3"/>
   </g>
   <g id="patch_3">
    <path d="M 57.6 307.584 
L 57.6 41.472 
" style="fill: none; stroke: #000000; stroke-width: 0.8; stroke-linejoin: miter; stroke-linecap: square"/>
   </g>
   <g id="patch_4">
    <path d="M 414.72 307.584 
L 414.72 41.472 
" style="fill: none; stroke: #000000; stroke-width: 0.8; stroke-linejoin: miter; stroke-linecap: square"/>
   </g>
   <g id="patch_5">
    <path d="M 57.6 307.584 
L 414.72 307.584 
" style="fill: none; stroke: #000000; stroke-width: 0.8; stroke-linejoin: miter; stroke-linecap: square"/>
   </g>
   <g id="patch_6">
    <path d="M 57.6 41.472 
L 414.72 41.472 
" style="fill: none; stroke: #000000; stroke-width: 0.8; stroke-linejoin: miter; stroke-linecap: square"/>
   </g>
   <g id="text_15">
    <!--  Simple Random Walk with p = 0.5 -->
    <g transform="translate(132.010312 35.472) scale(0.12 -0.12)">
     <defs>
      <path id="DejaVuSans-53" d="M 3425 4513 
L 3425 3897 
Q 3066 4069 2747 4153 
Q 2428 4238 2131 4238 
Q 1616 4238 1336 4038 
Q 1056 3838 1056 3469 
Q 1056 3159 1242 3001 
Q 1428 2844 1947 2747 
L 2328 2669 
Q 3034 2534 3370 2195 
Q 3706 1856 3706 1288 
Q 3706 609 3251 259 
Q 2797 -91 1919 -91 
Q 1588 -91 1214 -16 
Q 841 59 441 206 
L 441 856 
Q 825 641 1194 531 
Q 1563 422 1919 422 
Q 2459 422 2753 634 
Q 3047 847 3047 1241 
Q 3047 1584 2836 1778 
Q 2625 1972 2144 2069 
L 1759 2144 
Q 1053 2284 737 2584 
Q 422 2884 422 3419 
Q 422 4038 858 4394 
Q 1294 4750 2059 4750 
Q 2388 4750 2728 4690 
Q 3069 4631 3425 4513 
z
" transform="scale(0.015625)"/>
      <path id="DejaVuSans-69" d="M 603 3500 
L 1178 3500 
L 1178 0 
L 603 0 
L 603 3500 
z
M 603 4863 
L 1178 4863 
L 1178 4134 
L 603 4134 
L 603 4863 
z
" transform="scale(0.015625)"/>
      <path id="DejaVuSans-77" d="M 269 3500 
L 844 3500 
L 1563 769 
L 2278 3500 
L 2956 3500 
L 3675 769 
L 4391 3500 
L 4966 3500 
L 4050 0 
L 3372 0 
L 2619 2869 
L 1863 0 
L 1184 0 
L 269 3500 
z
" transform="scale(0.015625)"/>
      <path id="DejaVuSans-68" d="M 3513 2113 
L 3513 0 
L 2938 0 
L 2938 2094 
Q 2938 2591 2744 2837 
Q 2550 3084 2163 3084 
Q 1697 3084 1428 2787 
Q 1159 2491 1159 1978 
L 1159 0 
L 581 0 
L 581 4863 
L 1159 4863 
L 1159 2956 
Q 1366 3272 1645 3428 
Q 1925 3584 2291 3584 
Q 2894 3584 3203 3211 
Q 3513 2838 3513 2113 
z
" transform="scale(0.015625)"/>
      <path id="DejaVuSans-3d" d="M 678 2906 
L 4684 2906 
L 4684 2381 
L 678 2381 
L 678 2906 
z
M 678 1631 
L 4684 1631 
L 4684 1100 
L 678 1100 
L 678 1631 
z
" transform="scale(0.015625)"/>
      <path id="DejaVuSans-2e" d="M 684 794 
L 1344 794 
L 1344 0 
L 684 0 
L 684 794 
z
" transform="scale(0.015625)"/>
     </defs>
     <use xlink:href="#DejaVuSans-20"/>
     <use xlink:href="#DejaVuSans-53" x="31.787109"/>
     <use xlink:href="#DejaVuSans-69" x="95.263672"/>
     <use xlink:href="#DejaVuSans-6d" x="123.046875"/>
     <use xlink:href="#DejaVuSans-70" x="220.458984"/>
     <use xlink:href="#DejaVuSans-6c" x="283.935547"/>
     <use xlink:href="#DejaVuSans-65" x="311.71875"/>
     <use xlink:href="#DejaVuSans-20" x="373.242188"/>
     <use xlink:href="#DejaVuSans-52" x="405.029297"/>
     <use xlink:href="#DejaVuSans-61" x="472.261719"/>
     <use xlink:href="#DejaVuSans-6e" x="533.541016"/>
     <use xlink:href="#DejaVuSans-64" x="596.919922"/>
     <use xlink:href="#DejaVuSans-6f" x="660.396484"/>
     <use xlink:href="#DejaVuSans-6d" x="721.578125"/>
     <use xlink:href="#DejaVuSans-20" x="818.990234"/>
     <use xlink:href="#DejaVuSans-57" x="850.777344"/>
     <use xlink:href="#DejaVuSans-61" x="943.279297"/>
     <use xlink:href="#DejaVuSans-6c" x="1004.558594"/>
     <use xlink:href="#DejaVuSans-6b" x="1032.341797"/>
     <use xlink:href="#DejaVuSans-20" x="1090.251953"/>
     <use xlink:href="#DejaVuSans-77" x="1122.039062"/>
     <use xlink:href="#DejaVuSans-69" x="1203.826172"/>
     <use xlink:href="#DejaVuSans-74" x="1231.609375"/>
     <use xlink:href="#DejaVuSans-68" x="1270.818359"/>
     <use xlink:href="#DejaVuSans-20" x="1334.197266"/>
     <use xlink:href="#DejaVuSans-70" x="1365.984375"/>
     <use xlink:href="#DejaVuSans-20" x="1429.460938"/>
     <use xlink:href="#DejaVuSans-3d" x="1461.248047"/>
     <use xlink:href="#DejaVuSans-20" x="1545.037109"/>
     <use xlink:href="#DejaVuSans-30" x="1576.824219"/>
     <use xlink:href="#DejaVuSans-2e" x="1640.447266"/>
     <use xlink:href="#DejaVuSans-35" x="1672.234375"/>
    </g>
   </g>
  </g>
 </g>
 <defs>
  <clipPath id="pf228ebaa5f">
   <rect x="57.6" y="41.472" width="357.12" height="266.112"/>
  </clipPath>
 </defs>
</svg>
